<?xml version="1.0" encoding="utf-8"?>
<!-- Generator: Adobe Illustrator 23.0.0, SVG Export Plug-In . SVG Version: 6.00 Build 0)  -->
<svg version="1.1" id="Livello_1" xmlns="http://www.w3.org/2000/svg" xmlns:xlink="http://www.w3.org/1999/xlink" x="0px" y="0px"
	 viewBox="0 0 746 304" style="enable-background:new 0 0 746 304;" xml:space="preserve">
<style type="text/css">
	.st0{fill:#262626;}
	.st1{fill:none;stroke:#CC5440;stroke-width:6;stroke-miterlimit:10;}
</style>
<g>
	<path class="st0" d="M239.9,84c-1.6,3.4-3.8,6.2-6.6,8.5c-2.8,2.3-6.2,4-10.1,5.3c-3.9,1.2-8.2,1.8-13,1.8
		c-6.7,0-13.2-1.1-19.6-3.4c-6.4-2.3-12.3-5.8-17.5-10.6l11.4-13.6c4,3.3,8.1,5.8,12.3,7.8c4.2,1.9,8.8,2.9,13.8,2.9
		c4,0,7.1-0.7,9.3-2.2c2.2-1.5,3.3-3.5,3.3-6.1V74c0-1.3-0.2-2.4-0.7-3.3c-0.5-1-1.3-1.9-2.6-2.7c-1.3-0.8-3.1-1.7-5.4-2.5
		c-2.3-0.8-5.3-1.7-9-2.6c-4.4-1.1-8.4-2.3-12-3.6c-3.6-1.3-6.6-3-9.2-4.9c-2.5-2-4.4-4.4-5.8-7.3c-1.4-2.9-2.1-6.5-2.1-10.9v-0.3
		c0-4,0.7-7.6,2.2-10.8c1.5-3.2,3.6-6,6.3-8.3c2.7-2.3,5.9-4.1,9.6-5.4c3.7-1.3,7.9-1.9,12.4-1.9c6.4,0,12.3,1,17.7,2.9
		c5.4,1.9,10.3,4.7,14.8,8.3l-10,14.5c-3.9-2.7-7.8-4.8-11.5-6.3c-3.8-1.5-7.5-2.3-11.3-2.3c-3.8,0-6.6,0.7-8.4,2.2
		c-1.9,1.5-2.8,3.3-2.8,5.4v0.3c0,1.4,0.3,2.6,0.8,3.7c0.5,1,1.5,2,2.9,2.8c1.4,0.8,3.4,1.6,5.8,2.4c2.5,0.8,5.6,1.6,9.3,2.6
		c4.4,1.2,8.4,2.5,11.8,3.9c3.5,1.5,6.4,3.2,8.8,5.3c2.4,2,4.2,4.4,5.4,7.2c1.2,2.8,1.8,6,1.8,9.9v0.3
		C242.3,76.7,241.5,80.6,239.9,84z"/>
	<path class="st0" d="M319.5,69c0,0.7-0.1,1.5-0.2,2.4h-46.6c0.9,4.3,2.8,7.6,5.7,9.8c2.9,2.2,6.4,3.3,10.7,3.3c3.2,0,6-0.5,8.5-1.6
		c2.5-1.1,5.1-2.8,7.8-5.3l10.9,9.6c-3.2,3.9-7,7-11.5,9.2c-4.5,2.2-9.8,3.3-15.9,3.3c-5,0-9.6-0.8-13.9-2.5c-4.3-1.7-8-4-11.1-7.1
		c-3.1-3.1-5.6-6.7-7.3-10.9c-1.8-4.2-2.6-8.9-2.6-14.1v-0.3c0-4.8,0.8-9.3,2.4-13.5c1.6-4.3,3.9-8,6.8-11.1
		c2.9-3.2,6.4-5.7,10.4-7.5c4-1.8,8.5-2.8,13.4-2.8c5.6,0,10.4,1,14.5,3c4.1,2,7.5,4.7,10.2,8.1c2.7,3.4,4.7,7.3,6,11.6
		c1.3,4.4,1.9,8.9,1.9,13.7v0.3C319.5,67.6,319.5,68.4,319.5,69z M296.5,49.2c-2.4-2.6-5.6-3.9-9.6-3.9c-4,0-7.2,1.3-9.7,3.9
		c-2.5,2.6-4.1,6-4.8,10.4H301C300.5,55.3,299,51.8,296.5,49.2z"/>
	<path class="st0" d="M372.9,98.3V91c-2.3,2.6-5.1,4.6-8.4,6.2c-3.3,1.5-7.2,2.3-11.9,2.3c-3.2,0-6.1-0.4-8.9-1.3
		c-2.8-0.9-5.2-2.2-7.3-3.9c-2.1-1.8-3.7-3.9-4.9-6.4c-1.2-2.5-1.8-5.5-1.8-8.8v-0.3c0-3.7,0.7-6.8,2-9.5c1.3-2.7,3.2-4.9,5.6-6.6
		s5.2-3.1,8.5-3.9c3.3-0.9,6.9-1.3,10.9-1.3c3.4,0,6.4,0.3,8.9,0.8c2.5,0.5,5,1.2,7.4,2V59c0-4-1.2-7-3.6-9.1
		c-2.4-2.1-6-3.1-10.8-3.1c-3.7,0-6.9,0.3-9.7,0.9c-2.8,0.6-5.7,1.5-8.8,2.7l-4.8-14.5c3.7-1.6,7.5-2.9,11.5-3.9
		c4-1,8.8-1.5,14.5-1.5c10.4,0,18,2.5,22.8,7.6c4.8,5.1,7.1,12.2,7.1,21.3v38.9H372.9z M373.3,71.3c-1.7-0.8-3.5-1.4-5.6-1.8
		c-2-0.5-4.2-0.7-6.6-0.7c-4.1,0-7.3,0.8-9.6,2.4c-2.3,1.6-3.5,3.9-3.5,6.9v0.3c0,2.6,1,4.6,2.9,6c1.9,1.4,4.4,2.1,7.5,2.1
		c4.5,0,8.1-1.1,10.8-3.3c2.7-2.2,4.1-5,4.1-8.5V71.3z"/>
	<path class="st0" d="M447.1,49.9c-6.3,0-11.3,1.9-14.9,5.8c-3.6,3.8-5.4,9.8-5.4,17.9v24.8h-19v-67h19v13.5c1.9-4.6,4.5-8.3,7.9-11
		c3.3-2.8,7.8-4,13.5-3.8v19.9H447.1z"/>
	<path class="st0" d="M507.8,96.3c-4.2,2.3-9.6,3.4-16.3,3.4c-5,0-9.6-0.9-13.9-2.8c-4.3-1.8-8-4.3-11.1-7.4
		c-3.1-3.1-5.5-6.8-7.3-11c-1.8-4.2-2.6-8.7-2.6-13.4v-0.3c0-4.8,0.9-9.3,2.6-13.5c1.8-4.3,4.2-8,7.3-11.1c3.1-3.2,6.8-5.7,11.1-7.5
		c4.3-1.8,9-2.8,14.2-2.8c6.3,0,11.6,1,15.8,3c4.2,2,7.8,4.8,11,8.3L507,53.8c-2.2-2.3-4.4-4-6.7-5.4c-2.3-1.3-5.1-2-8.6-2
		c-2.4,0-4.6,0.5-6.6,1.4c-2,1-3.7,2.3-5.1,3.9c-1.5,1.7-2.6,3.6-3.4,5.8c-0.8,2.2-1.2,4.6-1.2,7.1v0.3c0,2.6,0.4,5,1.2,7.3
		c0.8,2.3,1.9,4.2,3.4,5.9c1.5,1.7,3.3,3,5.4,3.9c2.1,1,4.4,1.4,7,1.4c3.2,0,5.9-0.6,8.3-1.9c2.4-1.3,4.7-3,7.1-5.2L519,87.5
		C515.7,91.1,512,94.1,507.8,96.3z"/>
	<path class="st0" d="M573.7,98.3V61c0-4.5-1-7.9-3-10.2c-2-2.3-4.8-3.4-8.5-3.4c-3.7,0-6.6,1.1-8.7,3.4c-2.1,2.3-3.2,5.7-3.2,10.2
		v37.3h-19V7h19v33.8c1.1-1.4,2.3-2.8,3.6-4.1c1.3-1.3,2.7-2.5,4.3-3.5c1.6-1,3.3-1.8,5.3-2.4c1.9-0.6,4.1-0.9,6.5-0.9
		c7.3,0,12.9,2.2,16.8,6.6c4,4.4,5.9,10.5,5.9,18.3v43.4H573.7z"/>
	<path class="st0" d="M707.6,100l-10.1-10.3c-3.6,2.9-7.5,5.3-11.7,7.1c-4.2,1.8-8.9,2.7-13.9,2.7c-4.2,0-8-0.6-11.6-1.8
		c-3.6-1.2-6.7-2.9-9.3-5.1c-2.6-2.2-4.7-4.9-6.2-8c-1.5-3.1-2.3-6.6-2.3-10.6c0-5.7,1.5-10.5,4.4-14.4c2.9-4,7.1-7.2,12.6-9.7
		c-2.2-3.1-3.7-6-4.7-8.8c-1-2.8-1.4-5.7-1.4-8.8c0-3,0.6-5.9,1.8-8.7c1.2-2.8,2.9-5.3,5.1-7.4c2.3-2.1,5-3.8,8.3-5.1
		c3.3-1.3,7.1-1.9,11.3-1.9c3.8,0,7.1,0.6,10.1,1.7c3,1.1,5.6,2.7,7.8,4.7c2.2,2,3.8,4.4,5,7.1c1.2,2.7,1.8,5.6,1.8,8.7
		c0,5.9-1.7,10.7-5.1,14.4c-3.4,3.7-7.8,6.5-13.3,8.6L697.7,66c1.4-2.3,2.8-4.6,4.3-7.2c1.4-2.5,2.8-5.1,4.3-7.8l14.1,7.8
		c-1.7,3.1-3.5,6.2-5.4,9.4c-1.9,3.2-4,6.2-6.1,9.1l12.9,12.9L707.6,100z M670,61.8c-2.9,1.5-5,3.3-6.3,5.3c-1.3,2-1.9,4.1-1.9,6.3
		c0,3.2,1.1,5.7,3.4,7.6c2.3,1.9,5.2,2.8,8.8,2.8c2.2,0,4.3-0.4,6.4-1.3c2.1-0.9,4.2-2.1,6.2-3.7L670,61.8z M685.4,26.4
		c-1.5-1.4-3.5-2.1-5.9-2.1c-2.6,0-4.6,0.8-6.2,2.5c-1.5,1.7-2.3,3.8-2.3,6.5c0,2,0.4,3.8,1.2,5.4c0.8,1.6,2.1,3.5,3.9,5.6
		c3.8-1.4,6.7-3,8.7-4.8c2-1.8,2.9-4.1,2.9-6.9C687.7,29.9,687,27.8,685.4,26.4z"/>
</g>
<g>
	<path class="st0" d="M564.5,234.8c-1.5,3-3.7,5.5-6.6,7.5c-2.9,2-6.3,3.5-10.4,4.5s-8.5,1.5-13.4,1.5h-41.6v-87.5h40.6
		c9,0,16,2,21.2,6.1c5.1,4.1,7.7,9.6,7.7,16.5v0.3c0,2.5-0.3,4.7-0.9,6.6c-0.6,1.9-1.5,3.6-2.5,5.2c-1,1.5-2.2,2.9-3.6,4.1
		c-1.4,1.2-2.8,2.2-4.4,3c5.1,1.9,9,4.5,11.9,7.8c2.9,3.3,4.4,7.9,4.4,13.7v0.3C566.9,228.3,566.1,231.8,564.5,234.8z M543,186.7
		c0-2.9-1.1-5.1-3.3-6.7c-2.2-1.5-5.3-2.3-9.4-2.3h-19v18.5h17.8c4.3,0,7.6-0.7,10.1-2.2c2.5-1.5,3.8-3.8,3.8-7.1V186.7z
		 M547.8,221.7c0-2.9-1.1-5.2-3.4-6.9c-2.3-1.7-5.9-2.6-10.9-2.6h-22.3v19.3h22.9c4.3,0,7.6-0.8,10-2.3c2.4-1.5,3.6-3.9,3.6-7.2
		V221.7z"/>
	<path class="st0" d="M622.7,248.3v-9.6c-1.1,1.4-2.3,2.8-3.6,4.1c-1.3,1.3-2.7,2.5-4.3,3.5c-1.6,1-3.3,1.8-5.3,2.4
		c-1.9,0.6-4.1,0.9-6.5,0.9c-7.3,0-12.9-2.2-16.8-6.6c-4-4.4-5.9-10.5-5.9-18.3v-43.4h19v37.3c0,4.5,1,7.9,3,10.2
		c2,2.3,4.8,3.4,8.5,3.4c3.7,0,6.6-1.1,8.7-3.4c2.1-2.3,3.2-5.7,3.2-10.2v-37.3h19v67H622.7z"/>
	<path class="st0" d="M696.7,249.9c-1.3,3.4-2.6,6.3-4,8.7c-1.4,2.4-3,4.3-4.7,5.8c-1.7,1.5-3.6,2.6-5.8,3.3c-2.2,0.7-4.7,1-7.5,1
		c-3.5,0-6.6-0.4-9.3-1.3c-2.7-0.8-5.2-2-7.6-3.4l6.4-13.8c1.3,0.8,2.6,1.4,4.1,1.9c1.5,0.5,2.8,0.8,4.1,0.8c1.7,0,3-0.3,3.9-0.9
		c1-0.6,1.9-1.8,2.7-3.4l-26.3-67.3h20.1l15.3,45.6l14.6-45.6h19.8L696.7,249.9z"/>
</g>
<path class="st1" d="M462.7,262.3c-47.5,19.7-107.8,31.6-173.8,31.6c-152.4,0-275.9-63.4-275.9-141.6c0-45.2,41.4-85.6,105.8-111.5"
	/>
<path class="st1" d="M415.2,228.6c-37.4,15.5-85.1,24.9-137,24.9c-120.2,0-217.6-50-217.6-111.6c0-35.7,32.7-67.4,83.5-87.9"/>
</svg>
